<svg class="background" viewBox="0 0 1440 1024" fill="none" xmlns="http://www.w3.org/2000/svg">
  <g clip-path="url(#clip0_2_58)">
    <path fill="#DCF2FF" d="M0 0h1440v1024H0z"/>
    <path d="M1017.09 110.271c12.87-18.168 48.84-50.53 89.72-34.633 40.89 15.897 57.17 29.713 60.2 34.633 18.93-26.684 68.48-74.262 115.27-51.098 46.8 23.165 66.07 61.886 69.85 78.351 22.72 1.324 57.58 6.431 74.85 34.137 17.26 27.707-13.52 48.944-38.5 53.865-7.39 29.334-59.86 71.95-112.56 52.874-36.21-13.108-42.71-19.852-43.42-24.754-4.11 23.02-38.3 42.354-77.53 42.354-44.46 0-58.57-14.455-73.71-28.46-30.66 12.301-103.239 26.757-125.045-18.664-21.806-45.42-3.292-67.824 5.794-72.745-11.547-31.037-16.695-87.662 55.081-65.86ZM54.911 144.203c49.047 19.103 68.575 35.704 72.208 41.617 22.707-32.066 82.153-89.237 138.284-61.402 56.132 27.836 79.247 74.365 83.789 94.15 27.248 1.592 69.072 7.727 89.781 41.021 20.708 33.293-16.211 58.813-46.184 64.726-8.856 35.249-71.801 86.459-135.017 63.535-43.435-15.75-51.237-23.854-52.087-29.745C200.757 385.767 159.741 409 112.676 409c-53.335 0-70.254-17.37-88.419-34.199-6.658 2.676-14.964 5.436-24.257 7.839V144.419c16.402-6.2 35.179-7.901 54.911-.216ZM1194.59 574.831c8.98-12.636 34.06-35.143 62.58-24.087 28.52 11.056 39.88 20.665 41.99 24.087 13.2-18.559 47.77-51.648 80.41-35.538 32.64 16.111 46.08 43.04 48.72 54.491 3.55.207 7.54.546 11.71 1.165v80.81c-15.02 14.233-39.91 25.01-64.87 16-25.25-9.116-29.79-13.806-30.29-17.215-2.86 16.01-26.71 29.456-54.08 29.456-31.01 0-40.85-10.053-51.41-19.793-21.39 8.555-72.01 18.608-87.22-12.98-15.22-31.589-2.3-47.17 4.04-50.593-8.06-21.585-11.65-60.966 38.42-45.803ZM575.589 39.83c8.978-12.635 34.065-35.142 62.584-24.086 28.52 11.056 39.874 20.665 41.987 24.087 13.203-18.559 47.77-51.648 80.409-35.538 32.639 16.11 46.08 43.04 48.721 54.491 15.844.921 40.164 4.473 52.205 23.742 12.042 19.269-9.426 34.039-26.855 37.461-5.149 20.401-41.75 50.04-78.508 36.772-25.257-9.116-29.793-13.806-30.288-17.215-2.865 16.01-26.715 29.456-54.082 29.456-31.013 0-40.851-10.053-51.414-19.793-21.389 8.555-72.012 18.608-87.223-12.98-15.21-31.589-2.296-47.17 4.042-50.593-8.054-21.585-11.646-60.966 38.422-45.803ZM8.173 556.744c28.52 11.056 39.874 20.665 41.987 24.087 13.204-18.559 47.77-51.648 80.409-35.538 32.639 16.111 46.08 43.04 48.721 54.491 15.844.921 40.164 4.473 52.205 23.742 12.042 19.269-9.426 34.039-26.855 37.461-5.149 20.401-41.75 50.04-78.508 36.772-25.257-9.116-29.793-13.806-30.288-17.215C92.98 696.554 69.13 710 41.762 710 19.838 710 8.496 704.976 0 698.59V554.438a44.011 44.011 0 0 1 8.173 2.306ZM340.964 718.641c15.203-21.457 57.68-59.679 105.969-40.904 48.29 18.776 67.516 35.093 71.093 40.904 22.356-31.516 80.885-87.709 136.15-60.35s78.023 73.091 82.495 92.537c26.827 1.565 68.006 7.596 88.395 40.319 20.389 32.724-15.961 57.807-45.471 63.618-8.719 34.646-70.693 84.978-132.932 62.448-42.765-15.481-50.446-23.447-51.284-29.236C590.527 915.165 550.144 938 503.806 938c-52.511 0-69.169-17.073-87.054-33.613-36.217 14.529-121.933 31.601-147.687-22.044-25.755-53.644-3.889-80.105 6.843-85.916-13.638-36.658-19.719-103.535 65.056-77.786ZM1116.77 886.477c-42.4-16.486-79.7 17.074-93.05 35.916-74.432-22.61-69.093 36.112-57.118 68.299-6.003 3.25-15.973 13.858-16.574 33.308H1440v-49.025c-19.28-19.153-48.67-23.201-68.83-24.377-3.92-17.075-23.91-57.174-72.43-81.196-48.53-24.023-99.92 25.318-119.55 52.991-3.14-5.103-20.02-19.43-62.42-35.916ZM124.132 986.524c-3.785-16.465-23.055-55.186-69.847-78.351-18.34-9.079-37.106-7.291-54.285-.152V1024h200.843a40.473 40.473 0 0 0-1.868-3.34c-17.263-27.705-52.128-32.812-74.843-34.136Z" fill="#fff"/>
  </g>
  <defs>
    <clipPath id="clip0_2_58">
      <path fill="#fff" d="M0 0h1440v1024H0z"/>
    </clipPath>
  </defs>
</svg>
